<mxfile host="app.diagrams.net" modified="2023-12-06T22:14:28.120Z" agent="Mozilla/5.0 (Windows NT 10.0; Win64; x64) AppleWebKit/537.36 (KHTML, like Gecko) Chrome/119.0.0.0 Safari/537.36" etag="rW_dOfzT5uxiU1JfkFgi" version="21.6.2" type="device">
  <diagram name="Page-1" id="Zr4AevD4FxYuAubni-J4">
    <mxGraphModel dx="2327" dy="796" grid="1" gridSize="10" guides="1" tooltips="1" connect="1" arrows="1" fold="1" page="1" pageScale="1" pageWidth="827" pageHeight="1169" math="0" shadow="0">
      <root>
        <mxCell id="0" />
        <mxCell id="1" parent="0" />
        <mxCell id="XgDmZKnk4S7LWH69TVlX-7" value="" style="edgeStyle=orthogonalEdgeStyle;rounded=0;orthogonalLoop=1;jettySize=auto;html=1;" edge="1" parent="1" source="XgDmZKnk4S7LWH69TVlX-2" target="XgDmZKnk4S7LWH69TVlX-6">
          <mxGeometry relative="1" as="geometry" />
        </mxCell>
        <mxCell id="XgDmZKnk4S7LWH69TVlX-2" value="&lt;h1&gt;Home&lt;/h1&gt;" style="rounded=0;whiteSpace=wrap;html=1;fontFamily=Times New Roman;fontStyle=1;fillColor=#ffcd28;strokeColor=#d79b00;gradientColor=#ffa500;" vertex="1" parent="1">
          <mxGeometry x="-50" y="230" width="120" height="60" as="geometry" />
        </mxCell>
        <mxCell id="XgDmZKnk4S7LWH69TVlX-15" value="" style="edgeStyle=orthogonalEdgeStyle;rounded=0;orthogonalLoop=1;jettySize=auto;html=1;" edge="1" parent="1" source="XgDmZKnk4S7LWH69TVlX-6" target="XgDmZKnk4S7LWH69TVlX-14">
          <mxGeometry relative="1" as="geometry" />
        </mxCell>
        <mxCell id="XgDmZKnk4S7LWH69TVlX-6" value="&lt;h3&gt;&lt;font style=&quot;font-size: 18px;&quot;&gt;Register&lt;/font&gt;&lt;/h3&gt;" style="ellipse;whiteSpace=wrap;html=1;fontFamily=Times New Roman;rounded=0;fontStyle=1;fillColor=#dae8fc;strokeColor=#6c8ebf;gradientColor=#7ea6e0;" vertex="1" parent="1">
          <mxGeometry x="86.25" y="220" width="92.5" height="80" as="geometry" />
        </mxCell>
        <mxCell id="XgDmZKnk4S7LWH69TVlX-57" value="" style="edgeStyle=orthogonalEdgeStyle;rounded=0;orthogonalLoop=1;jettySize=auto;html=1;" edge="1" parent="1" source="XgDmZKnk4S7LWH69TVlX-8" target="XgDmZKnk4S7LWH69TVlX-10">
          <mxGeometry relative="1" as="geometry">
            <Array as="points">
              <mxPoint x="140" y="483" />
              <mxPoint x="140" y="483" />
            </Array>
          </mxGeometry>
        </mxCell>
        <mxCell id="XgDmZKnk4S7LWH69TVlX-8" value="&lt;h1&gt;Signup&lt;/h1&gt;" style="whiteSpace=wrap;html=1;fontFamily=Times New Roman;rounded=0;fontStyle=1;fillColor=#d5e8d4;strokeColor=#82b366;gradientColor=#97d077;" vertex="1" parent="1">
          <mxGeometry x="-22.5" y="450" width="120" height="60" as="geometry" />
        </mxCell>
        <mxCell id="XgDmZKnk4S7LWH69TVlX-45" value="" style="edgeStyle=orthogonalEdgeStyle;rounded=0;orthogonalLoop=1;jettySize=auto;html=1;" edge="1" parent="1" source="XgDmZKnk4S7LWH69TVlX-10" target="XgDmZKnk4S7LWH69TVlX-20">
          <mxGeometry relative="1" as="geometry" />
        </mxCell>
        <mxCell id="XgDmZKnk4S7LWH69TVlX-10" value="&lt;h1&gt;Login&lt;/h1&gt;" style="whiteSpace=wrap;html=1;fontFamily=Times New Roman;rounded=0;fontStyle=1;fillColor=#d5e8d4;strokeColor=#82b366;gradientColor=#97d077;" vertex="1" parent="1">
          <mxGeometry x="210" y="450" width="120" height="65" as="geometry" />
        </mxCell>
        <mxCell id="XgDmZKnk4S7LWH69TVlX-49" style="edgeStyle=orthogonalEdgeStyle;rounded=0;orthogonalLoop=1;jettySize=auto;html=1;entryX=0.5;entryY=0;entryDx=0;entryDy=0;exitX=1;exitY=0.5;exitDx=0;exitDy=0;" edge="1" parent="1" source="XgDmZKnk4S7LWH69TVlX-14" target="XgDmZKnk4S7LWH69TVlX-10">
          <mxGeometry relative="1" as="geometry">
            <mxPoint x="220" y="346.21" as="sourcePoint" />
            <mxPoint x="297.5" y="403.71" as="targetPoint" />
            <Array as="points">
              <mxPoint x="270" y="375" />
            </Array>
          </mxGeometry>
        </mxCell>
        <mxCell id="XgDmZKnk4S7LWH69TVlX-50" value="" style="edgeStyle=orthogonalEdgeStyle;rounded=0;orthogonalLoop=1;jettySize=auto;html=1;exitX=0;exitY=0.5;exitDx=0;exitDy=0;" edge="1" parent="1" source="XgDmZKnk4S7LWH69TVlX-14" target="XgDmZKnk4S7LWH69TVlX-8">
          <mxGeometry relative="1" as="geometry" />
        </mxCell>
        <mxCell id="XgDmZKnk4S7LWH69TVlX-14" value="&lt;h1&gt;New User?&lt;/h1&gt;" style="rhombus;whiteSpace=wrap;html=1;fontFamily=Times New Roman;rounded=0;fontStyle=1;fillColor=#f8cecc;strokeColor=#b85450;gradientColor=#ea6b66;" vertex="1" parent="1">
          <mxGeometry x="80" y="325" width="105" height="100" as="geometry" />
        </mxCell>
        <mxCell id="XgDmZKnk4S7LWH69TVlX-25" value="" style="edgeStyle=orthogonalEdgeStyle;rounded=0;orthogonalLoop=1;jettySize=auto;html=1;" edge="1" parent="1" source="XgDmZKnk4S7LWH69TVlX-20" target="XgDmZKnk4S7LWH69TVlX-24">
          <mxGeometry relative="1" as="geometry" />
        </mxCell>
        <mxCell id="XgDmZKnk4S7LWH69TVlX-53" style="edgeStyle=orthogonalEdgeStyle;rounded=0;orthogonalLoop=1;jettySize=auto;html=1;entryX=0;entryY=0.5;entryDx=0;entryDy=0;" edge="1" parent="1" source="XgDmZKnk4S7LWH69TVlX-20" target="XgDmZKnk4S7LWH69TVlX-22">
          <mxGeometry relative="1" as="geometry">
            <mxPoint x="360.0000000000002" y="710.0000000000002" as="targetPoint" />
            <Array as="points">
              <mxPoint x="360" y="580" />
              <mxPoint x="360" y="701" />
            </Array>
          </mxGeometry>
        </mxCell>
        <mxCell id="XgDmZKnk4S7LWH69TVlX-54" style="edgeStyle=orthogonalEdgeStyle;rounded=0;orthogonalLoop=1;jettySize=auto;html=1;entryX=0;entryY=0.5;entryDx=0;entryDy=0;" edge="1" parent="1" source="XgDmZKnk4S7LWH69TVlX-20" target="XgDmZKnk4S7LWH69TVlX-26">
          <mxGeometry relative="1" as="geometry">
            <Array as="points">
              <mxPoint x="360" y="580" />
              <mxPoint x="360" y="460" />
            </Array>
          </mxGeometry>
        </mxCell>
        <mxCell id="XgDmZKnk4S7LWH69TVlX-56" style="edgeStyle=orthogonalEdgeStyle;rounded=0;orthogonalLoop=1;jettySize=auto;html=1;entryX=0;entryY=0.5;entryDx=0;entryDy=0;" edge="1" parent="1" source="XgDmZKnk4S7LWH69TVlX-20" target="XgDmZKnk4S7LWH69TVlX-55">
          <mxGeometry relative="1" as="geometry">
            <mxPoint x="370.0000000000002" y="799.9999999999998" as="targetPoint" />
            <Array as="points">
              <mxPoint x="360" y="580" />
              <mxPoint x="360" y="820" />
            </Array>
          </mxGeometry>
        </mxCell>
        <mxCell id="XgDmZKnk4S7LWH69TVlX-20" value="&lt;h1&gt;Main&lt;/h1&gt;" style="whiteSpace=wrap;html=1;fontFamily=Times New Roman;rounded=0;fontStyle=1;fillColor=#ffcd28;strokeColor=#d79b00;gradientColor=#ffa500;" vertex="1" parent="1">
          <mxGeometry x="210" y="550" width="120" height="60" as="geometry" />
        </mxCell>
        <mxCell id="XgDmZKnk4S7LWH69TVlX-36" value="" style="edgeStyle=orthogonalEdgeStyle;rounded=0;orthogonalLoop=1;jettySize=auto;html=1;" edge="1" parent="1" source="XgDmZKnk4S7LWH69TVlX-22" target="XgDmZKnk4S7LWH69TVlX-35">
          <mxGeometry relative="1" as="geometry" />
        </mxCell>
        <mxCell id="XgDmZKnk4S7LWH69TVlX-22" value="&lt;h1&gt;Go to Cart&lt;/h1&gt;" style="whiteSpace=wrap;html=1;fontFamily=Times New Roman;rounded=0;fontStyle=1;fillColor=#e6d0de;strokeColor=#996185;gradientColor=#d5739d;" vertex="1" parent="1">
          <mxGeometry x="400" y="680" width="120" height="42.5" as="geometry" />
        </mxCell>
        <mxCell id="XgDmZKnk4S7LWH69TVlX-30" value="" style="edgeStyle=orthogonalEdgeStyle;rounded=0;orthogonalLoop=1;jettySize=auto;html=1;" edge="1" parent="1" source="XgDmZKnk4S7LWH69TVlX-24" target="XgDmZKnk4S7LWH69TVlX-29">
          <mxGeometry relative="1" as="geometry" />
        </mxCell>
        <mxCell id="XgDmZKnk4S7LWH69TVlX-24" value="&lt;h1 style=&quot;line-height: 150%;&quot;&gt;Exercises&lt;/h1&gt;" style="whiteSpace=wrap;html=1;fontFamily=Times New Roman;rounded=0;fontStyle=1;fillColor=#e6d0de;strokeColor=#996185;gradientColor=#d5739d;" vertex="1" parent="1">
          <mxGeometry x="400" y="558.75" width="120" height="40" as="geometry" />
        </mxCell>
        <mxCell id="XgDmZKnk4S7LWH69TVlX-51" value="" style="edgeStyle=orthogonalEdgeStyle;rounded=0;orthogonalLoop=1;jettySize=auto;html=1;entryX=-0.004;entryY=0.889;entryDx=0;entryDy=0;entryPerimeter=0;" edge="1" parent="1" source="XgDmZKnk4S7LWH69TVlX-26" target="XgDmZKnk4S7LWH69TVlX-33">
          <mxGeometry relative="1" as="geometry" />
        </mxCell>
        <mxCell id="XgDmZKnk4S7LWH69TVlX-26" value="&lt;h1&gt;Targets&lt;/h1&gt;" style="whiteSpace=wrap;html=1;fontFamily=Times New Roman;rounded=0;fontStyle=1;fillColor=#e6d0de;strokeColor=#996185;gradientColor=#d5739d;" vertex="1" parent="1">
          <mxGeometry x="400" y="440" width="120" height="40" as="geometry" />
        </mxCell>
        <mxCell id="XgDmZKnk4S7LWH69TVlX-32" value="" style="edgeStyle=orthogonalEdgeStyle;rounded=0;orthogonalLoop=1;jettySize=auto;html=1;" edge="1" parent="1" source="XgDmZKnk4S7LWH69TVlX-29" target="XgDmZKnk4S7LWH69TVlX-31">
          <mxGeometry relative="1" as="geometry" />
        </mxCell>
        <mxCell id="XgDmZKnk4S7LWH69TVlX-29" value="&lt;h2&gt;Choose Muscle&lt;/h2&gt;" style="ellipse;whiteSpace=wrap;html=1;fontFamily=Times New Roman;rounded=0;fontStyle=1;fillColor=#dae8fc;strokeColor=#6c8ebf;gradientColor=#7ea6e0;" vertex="1" parent="1">
          <mxGeometry x="550" y="528.75" width="100" height="100" as="geometry" />
        </mxCell>
        <mxCell id="XgDmZKnk4S7LWH69TVlX-31" value="&lt;ol style=&quot;&quot;&gt;&lt;li style=&quot;font-size: 18px;&quot;&gt;Description&lt;/li&gt;&lt;li style=&quot;font-size: 18px;&quot;&gt;Youtube link&lt;/li&gt;&lt;li style=&quot;font-size: 18px;&quot;&gt;Suggestion based on :&lt;/li&gt;&lt;ul&gt;&lt;li style=&quot;font-size: 18px;&quot;&gt;same muscle&lt;/li&gt;&lt;li style=&quot;font-size: 18px;&quot;&gt;same equipment&lt;/li&gt;&lt;/ul&gt;&lt;/ol&gt;" style="whiteSpace=wrap;html=1;fontFamily=Times New Roman;rounded=0;fontStyle=1;align=left;fillColor=#fff2cc;strokeColor=#d6b656;gradientColor=#ffd966;" vertex="1" parent="1">
          <mxGeometry x="680" y="520" width="235" height="120" as="geometry" />
        </mxCell>
        <mxCell id="XgDmZKnk4S7LWH69TVlX-33" value="&lt;h2 style=&quot;text-align: center; font-size: 18px;&quot;&gt;&lt;font style=&quot;font-size: 18px;&quot;&gt;&amp;nbsp; &lt;/font&gt;&lt;font style=&quot;font-size: 18px;&quot;&gt;Enter your targets:&lt;/font&gt;&lt;/h2&gt;&lt;div style=&quot;font-size: 18px;&quot;&gt;&lt;ol style=&quot;&quot;&gt;&lt;li style=&quot;&quot;&gt;&lt;font style=&quot;font-size: 18px;&quot;&gt;Calories&lt;/font&gt;&lt;/li&gt;&lt;li style=&quot;&quot;&gt;&lt;font style=&quot;font-size: 18px;&quot;&gt;Sleep&lt;/font&gt;&lt;/li&gt;&lt;li style=&quot;&quot;&gt;&lt;font style=&quot;font-size: 18px;&quot;&gt;Step&lt;/font&gt;&lt;/li&gt;&lt;li style=&quot;&quot;&gt;&lt;font style=&quot;font-size: 18px;&quot;&gt;Water intake&lt;/font&gt;&lt;/li&gt;&lt;li style=&quot;&quot;&gt;&lt;font style=&quot;font-size: 18px;&quot;&gt;Weight&lt;/font&gt;&lt;/li&gt;&lt;li style=&quot;&quot;&gt;&lt;font style=&quot;font-size: 18px;&quot;&gt;Workout&lt;/font&gt;&lt;/li&gt;&lt;/ol&gt;&lt;/div&gt;" style="whiteSpace=wrap;html=1;fontFamily=Times New Roman;rounded=0;fontStyle=1;fontSize=13;align=left;verticalAlign=middle;fillColor=#fff2cc;gradientColor=#ffd966;strokeColor=#d6b656;" vertex="1" parent="1">
          <mxGeometry x="560" y="265" width="152.5" height="220" as="geometry" />
        </mxCell>
        <mxCell id="XgDmZKnk4S7LWH69TVlX-46" value="" style="edgeStyle=orthogonalEdgeStyle;rounded=0;orthogonalLoop=1;jettySize=auto;html=1;" edge="1" parent="1" source="XgDmZKnk4S7LWH69TVlX-35" target="XgDmZKnk4S7LWH69TVlX-39">
          <mxGeometry relative="1" as="geometry" />
        </mxCell>
        <mxCell id="XgDmZKnk4S7LWH69TVlX-35" value="&lt;h3&gt;&lt;font style=&quot;font-size: 18px;&quot;&gt;Choose item&lt;/font&gt;&lt;/h3&gt;" style="ellipse;whiteSpace=wrap;html=1;fontFamily=Times New Roman;rounded=0;fontStyle=1;fillColor=#dae8fc;strokeColor=#6c8ebf;gradientColor=#7ea6e0;" vertex="1" parent="1">
          <mxGeometry x="550" y="650.32" width="100" height="104.37" as="geometry" />
        </mxCell>
        <mxCell id="XgDmZKnk4S7LWH69TVlX-39" value="&lt;h2&gt;Checkout&lt;/h2&gt;" style="whiteSpace=wrap;html=1;fontFamily=Times New Roman;rounded=0;fontStyle=1;fillColor=#fff2cc;strokeColor=#d6b656;gradientColor=#ffd966;" vertex="1" parent="1">
          <mxGeometry x="680" y="682.5" width="110" height="40" as="geometry" />
        </mxCell>
        <mxCell id="XgDmZKnk4S7LWH69TVlX-47" style="edgeStyle=orthogonalEdgeStyle;rounded=0;orthogonalLoop=1;jettySize=auto;html=1;exitX=0.5;exitY=1;exitDx=0;exitDy=0;" edge="1" parent="1" source="XgDmZKnk4S7LWH69TVlX-8" target="XgDmZKnk4S7LWH69TVlX-8">
          <mxGeometry relative="1" as="geometry" />
        </mxCell>
        <mxCell id="XgDmZKnk4S7LWH69TVlX-58" style="edgeStyle=orthogonalEdgeStyle;rounded=0;orthogonalLoop=1;jettySize=auto;html=1;" edge="1" parent="1" source="XgDmZKnk4S7LWH69TVlX-55">
          <mxGeometry relative="1" as="geometry">
            <mxPoint x="40" y="510" as="targetPoint" />
            <Array as="points">
              <mxPoint x="460" y="860" />
              <mxPoint x="41" y="860" />
              <mxPoint x="41" y="510" />
            </Array>
          </mxGeometry>
        </mxCell>
        <mxCell id="XgDmZKnk4S7LWH69TVlX-55" value="&lt;h1&gt;&lt;font face=&quot;Times New Roman&quot;&gt;Logout&lt;/font&gt;&lt;/h1&gt;" style="rounded=0;whiteSpace=wrap;html=1;fillColor=#e6d0de;strokeColor=#996185;gradientColor=#d5739d;" vertex="1" parent="1">
          <mxGeometry x="400" y="800" width="120" height="40" as="geometry" />
        </mxCell>
      </root>
    </mxGraphModel>
  </diagram>
</mxfile>
